<?xml version="1.0" encoding="UTF-8" standalone="no"?>
<!-- Created with Inkscape (http://www.inkscape.org/) -->

<svg
   xmlns:dc="http://purl.org/dc/elements/1.1/"
   xmlns:cc="http://creativecommons.org/ns#"
   xmlns:rdf="http://www.w3.org/1999/02/22-rdf-syntax-ns#"
   xmlns:svg="http://www.w3.org/2000/svg"
   xmlns="http://www.w3.org/2000/svg"
   xmlns:sodipodi="http://sodipodi.sourceforge.net/DTD/sodipodi-0.dtd"
   xmlns:inkscape="http://www.inkscape.org/namespaces/inkscape"
   width="212.83243mm"
   height="152.12718mm"
   viewBox="0 0 212.83243 152.12718"
   version="1.1"
   id="svg8"
   inkscape:version="0.92.4 (5da689c313, 2019-01-14)"
   sodipodi:docname="menuHamburguesa.svg">
  <defs
     id="defs2" />
  <sodipodi:namedview
     id="base"
     pagecolor="#ffffff"
     bordercolor="#666666"
     borderopacity="1.0"
     inkscape:pageopacity="0.0"
     inkscape:pageshadow="2"
     inkscape:zoom="0.35"
     inkscape:cx="-61.798261"
     inkscape:cy="35.030632"
     inkscape:document-units="mm"
     inkscape:current-layer="layer1"
     showgrid="false"
     fit-margin-top="0"
     fit-margin-left="0"
     fit-margin-right="0"
     fit-margin-bottom="0"
     inkscape:window-width="1366"
     inkscape:window-height="705"
     inkscape:window-x="-8"
     inkscape:window-y="-8"
     inkscape:window-maximized="1" />
  <metadata
     id="metadata5">
    <rdf:RDF>
      <cc:Work
         rdf:about="">
        <dc:format>image/svg+xml</dc:format>
        <dc:type
           rdf:resource="http://purl.org/dc/dcmitype/StillImage" />
        <dc:title />
      </cc:Work>
    </rdf:RDF>
  </metadata>
  <g
     inkscape:label="Capa 1"
     inkscape:groupmode="layer"
     id="layer1"
     transform="translate(0.97841629,-45.53636)">
    <g
       id="g856"
       style="fill:#156266;fill-opacity:1">
      <path
         inkscape:connector-curvature="0"
         id="path844"
         d="m 13.115772,197.51478 c -2.80373,-0.19184 -3.4635101,-0.35895 -5.5586901,-1.40795 -3.225,-1.61467 -5.5044,-3.91555 -7.08452,-7.15133 -1.0712,-2.19359 -1.42603,-3.84039 -1.41518,-6.56799 0.0264,-6.62355 4.07669,-12.15216 10.53207,-14.37605 l 2.0711101,-0.7135 93.794788,0.004 93.7948,0.004 2.0281,0.66926 c 2.43156,0.80239 5.36521,2.68965 6.82885,4.39308 1.29274,1.50453 2.99602,4.73922 3.42245,6.49956 0.45257,1.86819 0.3868,5.84625 -0.12522,7.57414 -1.21903,4.11386 -4.02141,7.56442 -7.65627,9.42714 -1.16416,0.59659 -2.71198,1.23834 -3.43958,1.42611 -1.06706,0.27537 -19.05404,0.34625 -93.00104,0.36647 -50.422968,0.0138 -92.809218,-0.0523 -94.191668,-0.14691 z m -0.79375,-60.85576 c -4.7792201,-0.48234 -9.2731501,-3.61408 -11.5591201,-8.05534 -1.30363,-2.53275 -1.73968,-4.28343 -1.73968,-6.98463 0,-2.70701 0.43609,-4.45161 1.75261,-7.01146 1.9419,-3.77585 5.83043,-6.8316 9.9586901,-7.8259 2.16425,-0.52126 187.285608,-0.52254 189.441668,-10e-4 3.98637,0.96371 7.99772,4.04884 9.83306,7.56262 1.396,2.67265 1.85064,4.49346 1.8447,7.38789 -0.006,3.078 -0.83529,5.77608 -2.58195,8.40342 -1.91464,2.88004 -4.87799,5.01769 -8.56664,6.17965 -1.36799,0.43094 -7.00551,0.46021 -94.05938,0.48852 -50.932288,0.0166 -93.378078,-0.048 -94.323958,-0.14345 z m 0.79375,-60.842317 c -2.96707,-0.1909 -4.9049601,-0.847323 -7.4515001,-2.524035 -2.83753,-1.868321 -4.74765,-4.410054 -5.90492,-7.857493 -0.94987,-2.829616 -0.94518,-6.524953 0.0119,-9.376056 0.81787,-2.436402 2.60855,-5.213199 4.29789,-6.664738 1.56275,-1.342757 4.76468,-3.008722 6.6653701,-3.467989 2.15579,-0.520906 187.277598,-0.519612 189.441668,0.0013 2.37481,0.571667 5.50367,2.342354 7.2771,4.118259 1.71701,1.719397 3.39876,4.601913 3.9981,6.852681 0.46338,1.740231 0.46338,5.992212 0,7.732443 -1.3371,5.021408 -5.45128,9.166429 -10.74603,10.826565 -1.36516,0.428038 -7.13654,0.458269 -93.26563,0.488514 -50.495728,0.01773 -92.941508,-0.04053 -94.323958,-0.129477 z"
         style="fill:#156266;stroke-width:0.26458335;fill-opacity:1" />
      <path
         transform="scale(0.26458333)"
         inkscape:connector-curvature="0"
         id="path846"
         d="M 32.402637,740.63747 C 17.544353,733.86449 3.4996709,717.6848 -0.53826829,702.68904 -6.8162694,679.37432 5.9840289,651.53783 28.193126,640.2076 c 10.956788,-5.58974 17.342194,-5.68791 369.948304,-5.68791 350.47968,0 359.05308,0.12959 369.75443,5.589 40.55743,20.69085 41.52574,77.62918 1.67414,98.44226 -11.39269,5.94999 -12.55009,5.97084 -368.57143,6.63801 -340.607284,0.63828 -357.67313,0.42755 -368.595933,-4.55149 z"
         style="opacity:1;fill:#156266;fill-opacity:1;fill-rule:nonzero;stroke:#000000;stroke-width:3.10223818;stroke-linecap:butt;stroke-linejoin:round;stroke-miterlimit:4;stroke-dasharray:none;stroke-dashoffset:0;stroke-opacity:0;paint-order:markers stroke fill" />
      <path
         transform="scale(0.26458333)"
         inkscape:connector-curvature="0"
         id="path848"
         d="M 30.816546,510.48386 C 18.896909,505.29282 1.485074,484.30417 -0.73967943,472.44522 -5.1937488,448.70299 4.6122477,425.48678 24.71308,412.18449 l 11.58214,-7.6648 H 397.9326 c 356.50029,0 361.77514,0.0812 371.33449,5.71428 5.33337,3.14286 13.63262,10.58353 18.44277,16.53483 7.21637,8.92837 8.94634,13.97141 9.89303,28.83896 1.63528,25.68144 -7.47412,42.70243 -28.63335,53.50167 -10.23917,5.22586 -22.84951,5.40644 -370,5.29842 -293.15644,-0.0912 -361.012943,-0.81447 -368.152994,-3.92399 z"
         style="opacity:1;fill:#156266;fill-opacity:1;fill-rule:nonzero;stroke:#000000;stroke-width:3.10223818;stroke-linecap:butt;stroke-linejoin:round;stroke-miterlimit:4;stroke-dasharray:none;stroke-dashoffset:0;stroke-opacity:0;paint-order:markers stroke fill" />
      <path
         transform="scale(0.26458333)"
         inkscape:connector-curvature="0"
         id="path850"
         d="M 37.241363,283.04295 C 24.198706,279.12808 9.3372329,266.04011 3.6074731,253.42279 -7.6102049,228.7207 -0.75220314,203.09897 21.977614,184.7913 l 10.979043,-8.84304 361.623003,-0.74687 361.62303,-0.74687 12.72197,6.15861 c 24.83463,12.02223 36.52491,45.17068 25.35665,71.9001 -5.10231,12.21155 -21.91834,26.67678 -35.34751,30.40609 -13.20137,3.66605 -709.493217,3.78533 -721.692437,0.12363 z"
         style="opacity:1;fill:#156266;fill-opacity:1;fill-rule:nonzero;stroke:#000000;stroke-width:3.10223818;stroke-linecap:butt;stroke-linejoin:round;stroke-miterlimit:4;stroke-dasharray:none;stroke-dashoffset:0;stroke-opacity:0;paint-order:markers stroke fill" />
    </g>
  </g>
</svg>
